<?xml version="1.0" encoding="UTF-8" standalone="no"?>
<!-- Generator: Adobe Illustrator 18.1.1, SVG Export Plug-In . SVG Version: 6.00 Build 0)  -->

<svg
   xmlns:dc="http://purl.org/dc/elements/1.1/"
   xmlns:cc="http://creativecommons.org/ns#"
   xmlns:rdf="http://www.w3.org/1999/02/22-rdf-syntax-ns#"
   xmlns:svg="http://www.w3.org/2000/svg"
   xmlns="http://www.w3.org/2000/svg"
   xmlns:sodipodi="http://sodipodi.sourceforge.net/DTD/sodipodi-0.dtd"
   xmlns:inkscape="http://www.inkscape.org/namespaces/inkscape"
   version="1.1"
   id="HOUR"
   x="0px"
   y="0px"
   viewBox="0 0 128.818 1000"
   enable-background="new 0 0 128.818 1000"
   xml:space="preserve"
   sodipodi:docname="hour-blue.svg"
   inkscape:version="0.92.2 (5c3e80d, 2017-08-06)"><metadata
     id="metadata3715"><rdf:RDF><cc:Work
         rdf:about=""><dc:format>image/svg+xml</dc:format><dc:type
           rdf:resource="http://purl.org/dc/dcmitype/StillImage" /><dc:title></dc:title></cc:Work></rdf:RDF></metadata><defs
     id="defs3713" /><sodipodi:namedview
     pagecolor="#ffffff"
     bordercolor="#666666"
     borderopacity="1"
     objecttolerance="10"
     gridtolerance="10"
     guidetolerance="10"
     inkscape:pageopacity="0"
     inkscape:pageshadow="2"
     inkscape:window-width="1264"
     inkscape:window-height="746"
     id="namedview3711"
     showgrid="false"
     inkscape:zoom="0.577"
     inkscape:cx="64.408997"
     inkscape:cy="500"
     inkscape:window-x="94"
     inkscape:window-y="-8"
     inkscape:window-maximized="1"
     inkscape:current-layer="HOUR" /><path
     fill="#68645B"
     d="M128.818,977.796C120.733,736.447,96.477,12.401,96.477,12.401C91.681,5.425,78.258,0.124,64.178,0.124  c-14.223,0-27.469,5.19-32.165,12.278L0,977.937l0,0c16.442,9.519,47.248,22.247,64.245,22.238  C81.33,1000.166,112.378,987.312,128.818,977.796L128.818,977.796z M64.245,572.271c-13.351,0-24.174-11.275-24.174-25.182  L52.157,68.137c0-7.093,5.411-12.843,12.087-12.843c6.675,0,12.087,5.749,12.087,12.843l12.087,478.952  C88.419,560.996,77.596,572.271,64.245,572.271z M0,977.937c16.217,12.833,47.249,22.362,64.245,22.238  c17.085-0.124,50.749-10.707,64.574-22.379"
     id="path3708"
     style="fill:#0000ff" /></svg>