<?xml version="1.0" encoding="UTF-8" standalone="no"?>
<!-- Generator: Adobe Illustrator 18.1.1, SVG Export Plug-In . SVG Version: 6.00 Build 0)  -->

<svg
   xmlns:dc="http://purl.org/dc/elements/1.1/"
   xmlns:cc="http://creativecommons.org/ns#"
   xmlns:rdf="http://www.w3.org/1999/02/22-rdf-syntax-ns#"
   xmlns:svg="http://www.w3.org/2000/svg"
   xmlns="http://www.w3.org/2000/svg"
   xmlns:sodipodi="http://sodipodi.sourceforge.net/DTD/sodipodi-0.dtd"
   xmlns:inkscape="http://www.inkscape.org/namespaces/inkscape"
   version="1.1"
   id="MINUTE"
   x="0px"
   y="0px"
   viewBox="0 0 89.854 1000"
   enable-background="new 0 0 89.854 1000"
   xml:space="preserve"
   sodipodi:docname="min-red.svg"
   inkscape:version="0.92.2 (5c3e80d, 2017-08-06)"><metadata
     id="metadata3733"><rdf:RDF><cc:Work
         rdf:about=""><dc:format>image/svg+xml</dc:format><dc:type
           rdf:resource="http://purl.org/dc/dcmitype/StillImage" /><dc:title></dc:title></cc:Work></rdf:RDF></metadata><defs
     id="defs3731" /><sodipodi:namedview
     pagecolor="#ffffff"
     bordercolor="#666666"
     borderopacity="1"
     objecttolerance="10"
     gridtolerance="10"
     guidetolerance="10"
     inkscape:pageopacity="0"
     inkscape:pageshadow="2"
     inkscape:window-width="1264"
     inkscape:window-height="746"
     id="namedview3729"
     showgrid="false"
     inkscape:zoom="0.472"
     inkscape:cx="130.40475"
     inkscape:cy="279.33848"
     inkscape:window-x="94"
     inkscape:window-y="-8"
     inkscape:window-maximized="1"
     inkscape:current-layer="MINUTE" /><path
     fill="#68645B"
     d="M89.854,984.4L67.39,12.429C64.048,5.454,54.693,0.153,44.88,0.153c-9.912,0-19.144,5.189-22.417,12.275  L0,984.4l0,0c16.302,10.452,27.243,15.491,44.81,15.596C62.201,1000.099,75.638,993.796,89.854,984.4L89.854,984.4z M44.927,587.357  c-9.305,0-16.848-11.272-16.848-25.176l8.421-522.4c0-7.092,3.771-12.84,8.424-12.84c4.652,0,8.424,5.748,8.424,12.84l8.426,522.4  C61.774,576.085,54.232,587.357,44.927,587.357z"
     id="path3726"
     style="fill:#ff0000" /></svg>